# xmcd
#
# Track frame offsets: 
#        150
#        15310
#        33117
#        47278
#        64781
#        82775
#        101386
#        117041
#        136906
#        153761
#
# Disc length: 2253 seconds
#
# Revision: 0
# Processed by: cddbd v1.5.2PL0 Copyright (c) Steve Scherf et al.
# Submitted via: ExactAudioCopyFreeDBPlugin 1.0
#
DISCID=5d08cb0a
DTITLE=www.twang - The Latest Twang
DYEAR=2018
DGENRE=Country
TTITLE0=The Latest Thing
TTITLE1=Trailer Park
TTITLE2=High Heeled Gals
TTITLE3=Black Cadillac
TTITLE4=Lookin' for Someone New
TTITLE5=A Fool with a Girl on His Mind
TTITLE6=Walk Away with Me
TTITLE7=Three Legged Dog
TTITLE8=Ball and Chain
TTITLE9=Jack Daniels
EXTD=
EXTT0=
EXTT1=
EXTT2=
EXTT3=
EXTT4=
EXTT5=
EXTT6=
EXTT7=
EXTT8=
EXTT9=
PLAYORDER=
